<svg width="504" height="408" viewBox="0 0 504 408" fill="none" xmlns="http://www.w3.org/2000/svg">
<path fill-rule="evenodd" clip-rule="evenodd" d="M224.554 27.6802C224.554 12.5224 236.842 0.234619 252 0.234619C267.158 0.234619 279.445 12.5224 279.445 27.6802C279.445 40.6923 270.39 51.5895 258.237 54.4138V81.5569C276.47 82.9258 292.772 90.2396 304.628 101.284H339.327C408.226 101.284 464.079 157.138 464.079 226.037C464.079 294.936 408.226 350.789 339.327 350.789H235.782L181.71 404.861C175.423 411.148 164.673 406.696 164.673 397.804L164.673 350.789C95.7739 350.789 39.9203 294.936 39.9203 226.037C39.9203 157.138 95.7739 101.284 164.673 101.284H199.371C211.227 90.2396 227.53 82.9258 245.762 81.5569V54.4138C233.609 51.5895 224.554 40.6923 224.554 27.6802ZM469.013 177.383H479.049C492.829 177.383 504 188.554 504 202.334V249.74C504 263.52 492.829 274.69 479.049 274.69H469.013C474.695 259.554 477.802 243.158 477.802 226.037C477.802 208.915 474.695 192.52 469.013 177.383ZM24.9503 274.69H34.9864C29.3051 259.554 26.1978 243.158 26.1978 226.037C26.1978 208.915 29.3051 192.52 34.9864 177.383H24.9503C11.1705 177.383 -0.000238792 188.554 -0.000239996 202.334L-0.000244141 249.74C-0.000245345 263.52 11.1705 274.69 24.9503 274.69Z" fill="#2563EB"/>
<circle cx="164.673" cy="226.037" r="37.4258" fill="white"/>
<circle cx="339.327" cy="226.037" r="37.4258" fill="white"/>
</svg>
